<svg id="Calque_1" data-name="Calque 1" xmlns="http://www.w3.org/2000/svg" viewBox="0 0 397.55 420.11"><defs><style>.cls-1{fill:none;stroke:#fff;stroke-miterlimit:10;}</style></defs><path class="cls-1" d="M881.77,729.28c5.15,23.15,69.47,39,113-49l18-38" transform="translate(-761.25 -327.83)"/><path class="cls-1" d="M886.77,705.28l-31,10c-1.26.44-4.18,3-4.13,4.3v0c.18,4.22,2.62,12.65,19.12,12.65,17.84,0,19.9-17.09,20-23.56a3,3,0,0,0-2.3-3l-1.8-.45c-8.39-2-27.48-6.43-35.08-5.8l-9.07.76a12.18,12.18,0,0,0-2.38,1.13,3,3,0,0,0-1.35,2.82,10.68,10.68,0,0,0,8.07,9.69c8.87,2.42,5.87,3.42,5.87,3.42" transform="translate(-761.25 -327.83)"/><path class="cls-1" d="M840.18,701.35" transform="translate(-761.25 -327.83)"/><path class="cls-1" d="M840.18,701.35S841.41,682,841.71,678a1.1,1.1,0,0,1,.69-1l3-1.29a2.64,2.64,0,0,0-.89-5.07l-2.67-.15a2.76,2.76,0,0,0-2.74,2.11c-.32,1.07-2.24,2.19-8.33,2.66-9.81.76-13.93-6.46-15.35-10a5.28,5.28,0,0,1-.13-3.57c2.52-8.14,13-44.62,1.48-54.38-10.44-8.83-27.32-25.4-33.57-31.59a11.66,11.66,0,0,1-3.2-5.76c-1.52-6.72-5-22.47-7.23-37.65-.1-.66-.18-1.3-.26-1.94-2-16.6,3.74-25.09,5-26.75a2.1,2.1,0,0,0,.35-.66c.85-2.41,8.57-15.4,70.9,20.35A1309.13,1309.13,0,0,1,968.44,601a2.61,2.61,0,0,1,.57.58l19.66,27.51a2.25,2.25,0,0,0,.24.3c1.31,1.36,11.9,11.92,26.86,12.85,16,1,57-8,61-18s34.93-25-6.86-112.71a2.55,2.55,0,0,0-.33-.52c-1.93-2.41-17.87-22.62-18.81-35.77-1-14-27-109-84-137C911.32,311,861.55,348.16,858.88,350.2a1.68,1.68,0,0,0-.21.18c-1.46,1.4-18.31,17.75-17.37,23.8a2.7,2.7,0,0,1-.91,2.37c-10.53,9.74-77.7,73.66-78.62,119.73,0,0-1,26,11,32" transform="translate(-761.25 -327.83)"/><path class="cls-1" d="M811.77,577.28s0,8,6,8,29-13,29-13l31-3-29-7Z" transform="translate(-761.25 -327.83)"/><path class="cls-1" d="M876.77,605.28c-9,12-34,13-34,13s-11-1-5-4,6-4,6-4,4-2,1-3c-5.11-1.7-2-6-2-6,7-8,25-7,25-7s26-2,14,12-22,12-22,12" transform="translate(-761.25 -327.83)"/><path class="cls-1" d="M972.55,605.8s-22.85-80.44,4.22-107.52c23-23,28-18,35-20,1,3,4.78-52.12-48-104-61.68-60.63-137.08,16-123.38,2.27" transform="translate(-761.25 -327.83)"/><path class="cls-1" d="M1087.77,552.28s14,1,13-17c-.42-7.61-4.43-13.8-8.9-18.4a51.52,51.52,0,0,0-13.1-9.6" transform="translate(-761.25 -327.83)"/><path class="cls-1" d="M1091.87,516.88c11.09-3.4,28.9-18.6,31.9-23.6,0,0,25.78-38.19,34.42-93.12a8.72,8.72,0,0,0-2.76-7.89c-5.36-4.77-18.18-11.39-45.69-5.3a21.42,21.42,0,0,1-16.7-3.23c-18.6-12.7-66.21-43-105.11-32.15" transform="translate(-761.25 -327.83)"/><path class="cls-1" d="M1053.72,636.27c-44.05,5-54-44-54-44s-28.89-76.7,32.65-91.91c.21-.05.84-.19.62-.17-1.27.08,24.53-6.63,38.66,15.49" transform="translate(-761.25 -327.83)"/></svg>