<svg id="Calque_1" data-name="Calque 1" xmlns="http://www.w3.org/2000/svg" viewBox="0 0 209.92 186.83"><defs><style>.cls-1{fill:none;stroke:#fff;stroke-miterlimit:10;}</style></defs><path class="cls-1" d="M867.49,493.77s-5,0-5-5c0,0-3,3-6-1,0,0,0-2,5-3,0,0-6-1-4-3,0,0,3,1.61,4.5.31s-3.5-3.31-3.5-3.31-4-1,0-2a18.05,18.05,0,0,0,4.13-1.56.4.4,0,0,0-.21-.75,4.91,4.91,0,0,1-2.92-.69s-7-2-4-3c0,0,2.77.56,2.88.28a7.25,7.25,0,0,1,.88-1,.9.9,0,0,1,.5-.26c.66-.09,2.17-.55-.26-3-3-3,1-2,1-2s3,3,4,1-2.06-2.7-2.06-2.7-1.94-3.3,2.06-4.3,2-4,2-4c0-2,4-2,4-2,0-2,1.33-1.78,2.22-1.41a1.57,1.57,0,0,0,1.11.05,6.24,6.24,0,0,1,2.36.09,1,1,0,0,0,1.17-1c-.13-2.62,1-3.46,2-3.7a1.05,1.05,0,0,1,1.26,1.09c-.07,1.57.3,4,3.89,1.89a21,21,0,0,1,12-3c3,0,7,6,9,7s6,0,6,0c8-2,9,3,9,3A7.53,7.53,0,0,1,925,461.5a2,2,0,0,0,1.92,1.39,8.91,8.91,0,0,1,3.57.88c7,3,4,9,4,9l6,6A13.53,13.53,0,0,1,944,492.09s8.49,4.68,4.49,4.68-1,3-1,3-5,2-7,2c-1.69,0,2.34,2.15,4.83,2.2a.67.67,0,0,1,.59,1l-1.42,2.84s-2.81,1.22-4.4.61,4.4,1.39,4.4,1.39.74,3-1.13,3c-1.59,0-4.71,0-6.84-1.22a.44.44,0,0,0-.62.56,4.59,4.59,0,0,0,4.73,3,.45.45,0,0,1,.26.83,5.38,5.38,0,0,1-4.4.78c-3-1,1,2,1,2s0,4-4,4a2,2,0,0,1-2,2c-2,0,2,2,2,2s0,2.7-3.41,1.28a.35.35,0,0,0-.48.42,3.55,3.55,0,0,0,1.89,2.3,2.33,2.33,0,0,1-3.18,1c-2.18-1-1.82,1-1.82,1" transform="translate(-854.24 -446.27)"/><path class="cls-1" d="M865.49,485.77s1-1,4-1,3,5,3,5l-3,4.55-3,4.45c-5,4,1,5,1,5l-1,2c-1,7,2,16,2,16s-2,10,3,10c0,0,27,0,38-15l3-2,1-1s3,4,6,0c0,0,10-5,7-15,0,0-7,9-9,6s-6-3-6-3,0,8-3,4,1-9,1-9-4-4-3-13,1-8,1-8c-6-1-7-5-7-5-10-15-26-4-29-1s-6,16-6,16a13.05,13.05,0,0,0,3,10" transform="translate(-854.24 -446.27)"/><path class="cls-1" d="M893.49,494.77a35.87,35.87,0,0,0-7.12-4.87c-1.24-.53-2.31-.7-2.88-.13-2,2-1,3-1,3s1.51.38,4.3.9C888.54,494,890.79,494.39,893.49,494.77Z" transform="translate(-854.24 -446.27)"/><path class="cls-1" d="M882.49,490.77s3-1,4,1-4,1-4,1" transform="translate(-854.24 -446.27)"/><path class="cls-1" d="M915.49,506.77l1-2s3,1,2,2l-1,1-5,6-1.25-.62-.75-.38Z" transform="translate(-854.24 -446.27)"/><path class="cls-1" d="M911.49,512.77s-5,4-3,10,3,11,4,12,1,12,1,12l1,4s4,13,3,15,1,11,1,12,1,11,1,12a9.11,9.11,0,0,0,.29,3.35,4.83,4.83,0,0,1,0,3.35,27.81,27.81,0,0,0-1.29,15.3s0,5-1,6a4.94,4.94,0,0,1-3,1l-1,4,2-2v-2" transform="translate(-854.24 -446.27)"/><path class="cls-1" d="M914.49,618.77s3-6,6-7,6-2,9-1,12-1,13-3,11-6,11-6,7-3,7-7,6-10,6-10l8-13s6-8,7-13" transform="translate(-854.24 -446.27)"/><path class="cls-1" d="M980.49,557.77a2.06,2.06,0,0,1-1.57-2.66,3.83,3.83,0,0,0-.59-3c-1.1-1.64-2.48-4.12-1.84-5.39,1-2,2,0,2,0s.66-1.45,2-1c3,1,4,1,7,4l.15.15a2.22,2.22,0,0,1,.82,2.05l-1,1.8" transform="translate(-854.24 -446.27)"/><path class="cls-1" d="M981.49,551.77" transform="translate(-854.24 -446.27)"/><path class="cls-1" d="M978.49,519.77l-3,8c-7,10-1,12-1,12s0,5,1,6l1,2v-1" transform="translate(-854.24 -446.27)"/><path class="cls-1" d="M978.49,540.77l-3-1h-1" transform="translate(-854.24 -446.27)"/><path class="cls-1" d="M974.49,528.77l-.73-1.31a11.43,11.43,0,0,1-.42-1.41c-1.25-5.34-5.79-6-7.87-5.55a8.06,8.06,0,0,0-1,.27s-7,8,6,16h1.61" transform="translate(-854.24 -446.27)"/><path class="cls-1" d="M983.49,519.77l-18,.73Z" transform="translate(-854.24 -446.27)"/><path class="cls-1" d="M983.49,519.77s7,1,8,5,2,12-2,12-9-2-13-13" transform="translate(-854.24 -446.27)"/><line class="cls-1" x1="118.75" y1="77.51" x2="122.75" y2="77.51"/><path class="cls-1" d="M1030.49,515.77a3.53,3.53,0,0,0-4-1l-32,10h-3" transform="translate(-854.24 -446.27)"/><path class="cls-1" d="M994.49,509.77c-4-1-13,3-13,3l1,2,8-2,4.51-.87" transform="translate(-854.24 -446.27)"/><path class="cls-1" d="M973,511.18" transform="translate(-854.24 -446.27)"/><path class="cls-1" d="M972.1,513.77c.6-1,5.39,1.51,5.39,1.51s-1-3.7-4.5-4.1l3.5-14.41s7-5,9-5,6,9,6,9,11,36,14,38,1.49-24.16,3.24-26.58,4.76,1.58,4.76,1.58,13,25,2,38-17,15-17,15-14.6,7.79-16-6.4a1.46,1.46,0,0,0-.5-1c-.79-.65-2.25-1.91-1.55-1.63,5,2,8-6,8-6" transform="translate(-854.24 -446.27)"/><path class="cls-1" d="M973,511.18s-2.5,3.34,0,8.47" transform="translate(-854.24 -446.27)"/><path class="cls-1" d="M995,511.9" transform="translate(-854.24 -446.27)"/><path class="cls-1" d="M994.49,509.77" transform="translate(-854.24 -446.27)"/><path class="cls-1" d="M893.49,489.41c-10-6.36-14-2.64-14-2.64s-1-3,2-3S893.49,489.41,893.49,489.41Z" transform="translate(-854.24 -446.27)"/><path class="cls-1" d="M977.81,551.35l.68.42c1,1,10,0,10,0" transform="translate(-854.24 -446.27)"/><path class="cls-1" d="M962.61,526.31" transform="translate(-854.24 -446.27)"/><path class="cls-1" d="M967.2,519.65s-5.1-15.88,8.09-27.88l2.52-3s4.68-26,40.68-20,36,47,36,47" transform="translate(-854.24 -446.27)"/><path class="cls-1" d="M1059.49,549.77s-3-7,2.3-26-2.3-42-2.3-42c-13-33-33-13-33-13l-.88,1.78" transform="translate(-854.24 -446.27)"/><path class="cls-1" d="M999.5,566.31l.52.79s3.53,8.23,0,19.95-8.53,27.72-6.53,30.72S996,631.55,996,631.55s6.49-9.78,10.49-11.78,21-28,21-28l14-24c-7-1-10.49-27-10.49-27l3.49-4.54" transform="translate(-854.24 -446.27)"/><path class="cls-1" d="M1027.6,518.68l.89-.91s4-7,8-4a10.8,10.8,0,0,1,4,8s-1,11.91-6,14.46-7,2.54-7,2.54h-1" transform="translate(-854.24 -446.27)"/><path class="cls-1" d="M1001.49,572.77c3.51-1,2-2,15-11s11-45,11-45l.11-2.21" transform="translate(-854.24 -446.27)"/><path class="cls-1" d="M1030.49,518.77s3-5,7-1-2,14-2,14" transform="translate(-854.24 -446.27)"/><path class="cls-1" d="M922.49,512.77s-1,21,4,20v3c0,2,6,8,6,8-1,5-3.5,4.5-20,21-13.11,13.11-18,10.09-19.48,8.3a2.42,2.42,0,0,1-.52-1.5v-9.36a2.17,2.17,0,0,0-.17-.84L884,541a3.71,3.71,0,0,1-.12-1.93c.45-3-12.38-7.3-12.38-7.3" transform="translate(-854.24 -446.27)"/><path class="cls-1" d="M934.49,515.83" transform="translate(-854.24 -446.27)"/><path class="cls-1" d="M868.49,489.77a3.29,3.29,0,0,1,1.91.75c1.28,1.06-1.31,2.11-2.61,2.18a1.6,1.6,0,0,1-1.64-1.1S866.19,490,868.49,489.77Z" transform="translate(-854.24 -446.27)"/><path class="cls-1" d="M869.49,484.77c2,0,2,3,1.25,2.45-1.38-1-4.59-.35-4.59-.35l-.77,0" transform="translate(-854.24 -446.27)"/><path class="cls-1" d="M868.44,516.66s-.88,6.66,11,.33a.25.25,0,0,0-.07-.46C877,516.11,869.25,514.87,868.44,516.66Z" transform="translate(-854.24 -446.27)"/><path class="cls-1" d="M879.49,516.77s-7-5-8.29-5.31-1.71.31-1.71.31-1.79-.89-1.14.7a1.75,1.75,0,0,1,.14.64v3.16" transform="translate(-854.24 -446.27)"/></svg>