<svg id="Calque_1" data-name="Calque 1" xmlns="http://www.w3.org/2000/svg" viewBox="0 0 204.31 537.78"><defs><style>.cls-1{fill:none;stroke:#fff;stroke-miterlimit:10;}</style></defs><path class="cls-1" d="M888.21,803.68s4-203.49,14-211c4-3-21-40-21-40l-23-88s-3.18-13.35,3-22c5-7,6.12-58.27,6-68.3a5.9,5.9,0,0,1,.9-3.19c2.86-4.51,11.81-18.25,20.08-26.51,0,0,11-31,18-34s16,3,16,3,8,31-14,70v46l6,16,12,8,18-34,12-56s3-9,14-14c8.62-3.92,18.47,3.83,22.33,7.37a6.17,6.17,0,0,1,2,3.9,97.94,97.94,0,0,1-7.29,46.73c-11,26-32,69-32,69s-22.83,9.78-29-18v-5.5" transform="translate(-856.89 -270.9)"/><path class="cls-1" d="M982.21,453.68l-27,51s8.49,31.13,32.8,10c.72-.62,1.45-1.29,2.2-2,26-25,39-97,39-97s4.65-19.53-18.34-20.93a11.71,11.71,0,0,0-7.55,2.11c-6.12,4.38-16.37,17.51-21.11,56.82" transform="translate(-856.89 -270.9)"/><path class="cls-1" d="M987.21,515.68s16,10,33-5,40-54,40-54,4.34-15.63-12.87-21a12.37,12.37,0,0,0-8.68.46c-5.19,2.3-13.76,8.05-20,22.08" transform="translate(-856.89 -270.9)"/><path class="cls-1" d="M1056.21,463.68s-16,132-43,152l-4,193" transform="translate(-856.89 -270.9)"/><path class="cls-1" d="M958.23,360.15s18-42.47,1-56.47-31-2-31-2-17.41,9.94,3.62,24.55a73.44,73.44,0,0,0,7.38,4.45s14,5,21-2" transform="translate(-856.89 -270.9)"/><path class="cls-1" d="M931.83,326.23l9.38,53.45s4,13,7,16" transform="translate(-856.89 -270.9)"/><path class="cls-1" d="M931.21,304.68s16,3,19,14l5-6c0-16-20-11-20-11Z" transform="translate(-856.89 -270.9)"/><path class="cls-1" d="M928.21,464.68s7-23,20-14,2,27,2,27" transform="translate(-856.89 -270.9)"/><path class="cls-1" d="M958.21,511.68s9-27,22-19-.44,27.6-.44,27.6" transform="translate(-856.89 -270.9)"/><path class="cls-1" d="M1003.21,518.68s13-8.73-4-16.87" transform="translate(-856.89 -270.9)"/><path class="cls-1" d="M924.56,277.14a4.24,4.24,0,0,0-.61-1.06c-3.74-5.4-12.86-5.35-16.52-3.68-.74.33-1.33.8-2,1.2-5.36,3-25,29,9.15,35.47a8.41,8.41,0,0,0,6.75-1.66c4.26-3.35,9.92-8.75,9.92-14.73C931.21,286.39,925.21,278.68,924.56,277.14Z" transform="translate(-856.89 -270.9)"/><path class="cls-1" d="M922.78,277.74a.41.41,0,0,0-.57.39c.06,2.61.6,15.55,6,15.55S925.62,279.13,922.78,277.74Z" transform="translate(-856.89 -270.9)"/><path class="cls-1" d="M899.21,292.68c1,5,8-2,6-3s-6,3-6,3Z" transform="translate(-856.89 -270.9)"/><path class="cls-1" d="M923.47,337.57l5.74,16.11h0a1.23,1.23,0,0,0,1.78,1.1l.22-.1,3,10s4,19,6,21c0,0,5,12,8,13" transform="translate(-856.89 -270.9)"/><line class="cls-1" x1="95.82" y1="208.39" x2="98.32" y2="227.77"/><line class="cls-1" x1="98.32" y1="206.77" x2="100.68" y2="228.31"/><polyline class="cls-1" points="101.32 246.77 128.32 308.77 132.08 307.64 138.32 305.77 118.24 251.56"/><path class="cls-1" d="M989,578.55l4.24,10.13s6,49-12,73-36,83-36,83-22,45-24,63" transform="translate(-856.89 -270.9)"/><path class="cls-1" d="M994,577.49l3.2,9.19s6,54-9,70c0,0-37,74-40,90s-20,40-22,61" transform="translate(-856.89 -270.9)"/></svg>