<svg id="Calque_1" data-name="Calque 1" xmlns="http://www.w3.org/2000/svg" viewBox="0 0 259.9 296.68"><defs><style>.cls-1{fill:none;stroke:#fff;stroke-miterlimit:10;}</style></defs><path class="cls-1" d="M898.15,577.88c-2,12,7,40,7,40l53,38s4.09,3.2,10.68,7.69c18.66,12.75,57.41,35.92,80.32,26.31,31-13,13-26,17-33s4-9,8-17-23-3-23-3c32-6,27-11,27-11-5-19,0-18,0-18,19-10,14-19,14-19s-22-28-26-38,7-16,7-16c4-15-17-53-17-53s-44-35-75,10c0,0,8,11,7,25,0,0-15,9-15,17s-6,36,2,47,28,48,34,49" transform="translate(-833.35 -395.97)"/><path class="cls-1" d="M956.15,629.88l12.68,33.69Z" transform="translate(-833.35 -395.97)"/><polyline class="cls-1" points="101.8 189.91 115.8 212.91 117.8 217.91 126.8 236.91 138.36 269.6"/><path class="cls-1" d="M943.15,608.88s-17,10-35-11c-16.95-19.79-9.06-40.46-8.09-42.79a1.63,1.63,0,0,1,.24-.4c1.44-1.88,13.63-16.86,27.62-5a1.32,1.32,0,0,1,.36.48c.85,2.07,5.82,15-.36,23.15a13.54,13.54,0,0,1-1.95,2.08" transform="translate(-833.35 -395.97)"/><path class="cls-1" d="M956.15,629.88l-10-18-14-21s-5,3-8-1-5-7,.92-13.91a1.26,1.26,0,0,1,.23-.21,2.83,2.83,0,0,1,.67-.37,6.69,6.69,0,0,1,3.18-.51c4,0,4,9.38,6.73,9.06a1,1,0,0,1,.67.2l1.32.88a1.86,1.86,0,0,1,.41,3,3.73,3.73,0,0,1-1.13.86" transform="translate(-833.35 -395.97)"/><path class="cls-1" d="M925.15,571.88s7-16-4-21c0,0-22,2-19,23s18,27,18,27,2.45,1.55,5-1" transform="translate(-833.35 -395.97)"/><path class="cls-1" d="M926.15,563.88s-12,10-13,13-1,23,12,15" transform="translate(-833.35 -395.97)"/><path class="cls-1" d="M1062.15,544.88s12-7-7-15-38,6-38,6l-4,4s24-7,31-6S1062.15,544.88,1062.15,544.88Z" transform="translate(-833.35 -395.97)"/><path class="cls-1" d="M1046.15,543.88c-5-6-21,7-21,7l-3,3Z" transform="translate(-833.35 -395.97)"/><path class="cls-1" d="M1026.15,555.88s11,8,19,3" transform="translate(-833.35 -395.97)"/><path class="cls-1" d="M1028.15,554.88s4,6,13,4c0,0,7-6,1-12" transform="translate(-833.35 -395.97)"/><path class="cls-1" d="M1056.15,481.88s44-38-27-70-109.23-6.86-139,10c-14,7.91-19.75,11.75-23,15-8,8-11.43,11-14.63,17.84-13.92,29.78-33.1,87.67-1.66,135.71a1.94,1.94,0,0,0,.77.68l53.52,26.77" transform="translate(-833.35 -395.97)"/></svg>